# xmcd
#
# Track frame offsets: 
#        150
#        17236
#        33867
#        67137
#        82234
#        96749
#        109788
#        121545
#        132726
#        151027
#        159779
#
# Disc length: 2561 seconds
#
# Revision: 0
# Processed by: cddbd v1.5.2PL0 Copyright (c) Steve Scherf et al.
# Submitted via: ExactAudioCopy v0.95b4
#
DISCID=8d09ff0b
DTITLE=Снежный барс - Свидетельство О Рождении
DYEAR=1989
DGENRE=Blues
TTITLE0=Безразличный
TTITLE1=Возьми Меня С Собой
TTITLE2=Осень
TTITLE3=Туманный Лондон (инстр.)
TTITLE4=Любовь В 17 Лет
TTITLE5=Пол-царства За Коня
TTITLE6=Фотомодель
TTITLE7=...??(инстр.)
TTITLE8=Только Раз
TTITLE9=Колыбельная Земле
TTITLE10=Осень (инстр.)
EXTD=
EXTT0=
EXTT1=
EXTT2=
EXTT3=
EXTT4=
EXTT5=
EXTT6=
EXTT7=
EXTT8=
EXTT9=
EXTT10=
PLAYORDER=
